<?xml version="1.0" encoding="UTF-8"?>
<svg id="Layer_1" data-name="Layer 1" xmlns="http://www.w3.org/2000/svg" viewBox="0 0 1024 1024">
  <defs>
    <style>
      .cls-1 {
        fill: #133eb7;
        stroke-width: 0px;
      }
    </style>
  </defs>
  <g>
    <path class="cls-1" d="m387.54,552.65c-1.47-.63,12.38-21.42,13.85-52.21,1.91-40.01-17.06-97.14-69.26-125.73-53.96-29.55-107.6-8.97-114.01-6.39-3.98,1.6-62.73,26.4-78.85,87.37-16.4,62.06,17.78,130.29,75.65,159.82,55.63,28.39,125.25,17.03,171.54-28.77,66.06-63.93,132.12-127.86,198.18-191.79,60.69-71.98,149.77-107.62,232.27-89.5,20.88,4.58,88.47,22.96,127.86,88.43,37.74,62.74,37.31,148.28-9.59,213.1-40.43,55.88-117.79,99.14-196.05,76.71-82.04-23.51-138.86-111.64-126.26-208.3,1.03,14.52,6.77,71.38,53.27,112.94,42.95,38.39,118.95,62.17,181.13,22.37,53.51-34.25,81.04-105.49,57.54-166.21-30.34-78.4-125.08-85.86-132.12-86.3-87.68-5.46-141.08,65.08-144.9,70.32-67.12,65.7-134.25,131.41-201.37,197.11-8.74,8.74-74.11,71.99-170.48,61.8-16.01-1.69-85.85-11.01-135.32-72.45-40.38-50.15-58.22-123.91-31.96-191.79,28.02-72.44,103.39-130.74,187.52-122.53,76.22,7.44,145.62,68.09,153.43,134.25,7.24,61.39-39.58,118.8-42.09,117.74Z"/>
    <g>
      <path class="cls-1" d="m420.09,405.13c-7.52-18.68-16.92-30.33-24.18-37.55-6.94-6.9-11.81-12.92-25.49-23.57-7.34-5.71-12.25-11.78-15.62-17.35-14.28-23.57-13.59-86.18,20.62-118.6,37.56-35.59,113.59-33.83,169.66,18.75,19.41,16.58,62.85,49.16,127.7,61.84,73.78,14.43,132.76-5.21,156.39-14.56-30.42,4.3-74.51,5.94-120.8-11.67-78.94-30.03-95.77-90-161.26-127.61-13.45-7.72-129.69-71.85-209.75-15.63-48.12,33.79-71.45,102.88-56.66,164.83,15.5,64.92,66.97,97.3,77.75,103.76,20.55,5.79,41.1,11.58,61.65,17.37Z"/>
      <circle class="cls-1" cx="588.84" cy="114.65" r="61.36"/>
    </g>
  </g>
  <g>
    <path class="cls-1" d="m171.59,785.52c-2.59-6.85-6.66-12.68-12.22-17.49-5.55-4.81-11.9-8.56-19.02-11.25-7.13-2.68-14.67-4.35-22.63-5-7.96-.65-15.46-.23-22.49,1.25-7.59,1.67-14.4,4.49-20.41,8.47-6.02,3.98-11.11,8.79-15.27,14.44-4.17,5.65-7.36,11.9-9.58,18.74-2.22,6.85-3.33,13.98-3.33,21.38,0,13.88,2.96,25.68,8.89,35.4,5.92,9.72,13.42,17.17,22.49,22.35,9.07,5.18,18.97,7.96,29.71,8.33,10.73.37,20.92-1.67,30.54-6.11,8.33-3.7,17.67-10.92,28.04-21.66l23.88,25.82c-6.3,6.48-12.4,12.04-18.33,16.66-5.93,4.63-12.08,8.43-18.46,11.38-6.39,2.96-13.15,5.18-20.27,6.66-7.13,1.48-14.85,2.22-23.18,2.22-14.99,0-28.23-2.41-39.71-7.22-11.48-4.81-21.29-11.25-29.43-19.3-8.15-8.05-14.58-17.31-19.3-27.77-4.72-10.46-7.82-21.33-9.3-32.63-1.48-11.29-1.21-22.53.83-33.74,2.03-11.2,5.74-21.61,11.11-31.24,5.18-9.07,11.06-16.7,17.63-22.91,6.57-6.2,13.7-11.2,21.38-14.99,7.68-3.79,15.83-6.53,24.43-8.19s17.54-2.59,26.79-2.78c6.48,0,13.28.6,20.41,1.8,7.12,1.21,13.88,3.05,20.27,5.55,6.39,2.5,12.08,5.69,17.08,9.58,5,3.89,8.51,8.42,10.55,13.61,2.03,5.18,2.31,10.97.83,17.35-1.48,6.39-5.46,13.47-11.94,21.24Z"/>
    <path class="cls-1" d="m266.27,967.38c-9.07,0-17.45-1.21-25.13-3.61-7.68-2.41-14.02-5.97-19.02-10.69-5-4.72-8.38-10.69-10.13-17.91-1.76-7.22-1.25-15.55,1.53-24.99,2.22,4.07,5.14,7.64,8.75,10.69,3.61,3.05,7.64,5.6,12.08,7.64,4.44,2.03,9.07,3.56,13.88,4.58,4.81,1.02,9.53,1.43,14.16,1.25,13.33-.55,23.51-4.03,30.54-10.41,7.03-6.39,10.55-16.33,10.55-29.85-1.3,3.52-3.52,6.57-6.66,9.16-3.15,2.59-6.66,4.77-10.55,6.53-3.89,1.76-7.87,3.1-11.94,4.03-4.07.92-7.77,1.48-11.11,1.67-7.04.37-13.98-.55-20.82-2.78-6.85-2.22-13.05-6.2-18.6-11.94-8.33-8.51-12.5-20.92-12.5-37.21v-94.13h35.26c0,3.15-.05,7.36-.14,12.63-.1,5.28-.14,11.11-.14,17.49v19.71c0,6.76.09,13.19.28,19.3.18,6.11.46,11.52.83,16.24.37,4.72.83,8.19,1.39,10.41,1.48,5.93,4.26,10.37,8.33,13.33,4.07,2.96,8.51,4.44,13.33,4.44,3.15,0,6.11-.51,8.89-1.53,2.78-1.01,5.23-2.45,7.36-4.3,2.13-1.85,3.84-3.93,5.14-6.25,1.29-2.31,1.94-4.86,1.94-7.64,4.62,1.3,7.87,4.54,9.72,9.72v-103.57h35.82v126.61c0,21.84-6.16,39.19-18.46,52.06-12.31,12.86-30.5,19.3-54.56,19.3Z"/>
    <path class="cls-1" d="m478.96,823c-1.48-5.18-4.3-9.53-8.47-13.05-4.17-3.51-9.02-6.15-14.58-7.91-5.55-1.76-11.48-2.59-17.77-2.5-6.29.1-12.26,1.35-17.91,3.75-5.65,2.41-10.6,5.97-14.85,10.69-4.26,4.72-7.22,10.69-8.88,17.91-1.3,5.93-1.48,11.94-.56,18.05.92,6.11,3.05,11.62,6.39,16.52,3.33,4.91,7.82,8.93,13.47,12.08,5.64,3.15,12.45,4.72,20.41,4.72,14.99,0,26.66-5.46,34.99-16.38l26.38,19.16c-14.07,19.81-34.34,29.71-60.81,29.71-13.88,0-25.87-2.64-35.96-7.91-10.09-5.28-18.28-12.12-24.57-20.55-6.29-8.42-10.55-17.86-12.77-28.32-2.22-10.46-2.46-20.82-.69-31.1,1.76-10.27,5.6-19.99,11.52-29.16,5.92-9.16,13.97-16.61,24.16-22.35,7.59-4.26,15.69-7.17,24.3-8.75,8.61-1.57,17.26-1.71,25.96-.42,11.48,1.67,20.41,5.09,26.79,10.27,6.39,5.18,10.59,10.79,12.63,16.8,2.03,6.02,2.17,11.76.42,17.21-1.76,5.46-4.95,9.3-9.58,11.52Z"/>
    <path class="cls-1" d="m559.2,878.25h66.64v35.26h-103.57v-165.21c0-9.25,3.35-16.47,10.07-21.66,6.72-5.18,15.67-7.68,26.86-7.5v159.1Z"/>
    <path class="cls-1" d="m676.93,710.55c6.29,0,11.66,2.32,16.1,6.94,4.62,4.44,6.94,9.91,6.94,16.38s-2.22,12.03-6.66,16.66c-2.59,2.59-5.6,4.4-9.02,5.41-3.43,1.02-6.85,2.04-10.27,3.05-3.43,1.02-6.57,2.22-9.44,3.61-2.87,1.39-4.86,3.66-5.97,6.8-.93-2.96-1.9-6.75-2.92-11.38-1.02-4.62-1.67-9.44-1.94-14.44-.28-5,0-9.86.83-14.58.83-4.72,2.82-8.65,5.97-11.8,4.44-4.44,9.9-6.66,16.38-6.66Zm-18.05,88.3c.37-5.55,1.53-10.18,3.47-13.88,1.94-3.7,4.49-6.66,7.64-8.88,3.15-2.22,6.8-3.84,10.97-4.86,4.17-1.01,8.75-1.53,13.74-1.53v143.83h-35.82v-114.67Z"/>
    <path class="cls-1" d="m763.56,786.35c1.48-3.33,3.75-6.2,6.8-8.61,3.05-2.4,6.43-4.44,10.13-6.11,3.7-1.67,7.5-2.96,11.38-3.89,3.89-.92,7.5-1.48,10.83-1.67,7.03-.37,13.97.6,20.83,2.92,6.85,2.32,13.14,6.34,18.88,12.08,8.33,8.7,12.49,21.2,12.49,37.48v94.96h-35.54c0-3.15.04-7.4.14-12.77.09-5.37.14-11.25.14-17.63v-19.85c0-6.85-.1-13.33-.28-19.44-.19-6.11-.46-11.57-.83-16.38-.37-4.81-.83-8.33-1.39-10.55-1.48-5.92-4.3-10.37-8.47-13.33-4.17-2.96-8.66-4.44-13.47-4.44-6.29,0-11.2,1.71-14.72,5.14-3.52,3.43-5.28,7.91-5.28,13.47-2.22-.74-4.44-2.26-6.66-4.58-2.22-2.31-3.89-4.76-5-7.36v107.73h-35.82v-143.83h35.82v16.66Z"/>
    <path class="cls-1" d="m917.94,831.05l30.26-33.6c6.11-6.85,12.12-12.4,18.05-16.66,5.92-4.26,13.05-6.66,21.38-7.22,4.07-.18,7.96.14,11.66.97,3.7.83,6.75,2.32,9.16,4.44,2.4,2.13,3.98,4.82,4.72,8.05.74,3.24.28,7.18-1.39,11.8-.74-1.29-2.08-2.17-4.03-2.64-1.94-.46-4.26-.42-6.94.14-2.69.55-5.6,1.71-8.75,3.47-3.15,1.76-6.2,4.4-9.16,7.91l-29.43,32.49,67.75,73.3h-43.87l-59.42-64.7v64.7h-35.26v-166.04c0-8.88,3.19-15.87,9.58-20.96,6.39-5.09,14.95-7.54,25.68-7.36v111.9Z"/>
  </g>
</svg>