<?xml version="1.0" encoding="utf-8"?>
<!-- Generator: Adobe Illustrator 27.9.0, SVG Export Plug-In . SVG Version: 6.00 Build 0)  -->
<svg version="1.1" id="Layer_1" xmlns="http://www.w3.org/2000/svg" xmlns:xlink="http://www.w3.org/1999/xlink" x="0px" y="0px"
	 viewBox="0 0 1024 1024" style="enable-background:new 0 0 1024 1024;" xml:space="preserve">
<style type="text/css">
	.st0{fill:#05416C;}
</style>
<g>
	<path class="st0" d="M387.5,552.7c-1.5-0.6,12.4-21.4,13.9-52.2c1.9-40-17.1-97.1-69.3-125.7c-54-29.5-107.6-9-114-6.4
		c-4,1.6-62.7,26.4-78.9,87.4C122.9,517.8,157,586,214.9,615.5c55.6,28.4,125.2,17,171.5-28.8c66.1-63.9,132.1-127.9,198.2-191.8
		c60.7-72,149.8-107.6,232.3-89.5c20.9,4.6,88.5,23,127.9,88.4c37.7,62.7,37.3,148.3-9.6,213.1c-40.4,55.9-117.8,99.1-196,76.7
		c-82-23.5-138.9-111.6-126.3-208.3c1,14.5,6.8,71.4,53.3,112.9c43,38.4,119,62.2,181.1,22.4c53.5-34.2,81-105.5,57.5-166.2
		c-30.3-78.4-125.1-85.9-132.1-86.3c-87.7-5.5-141.1,65.1-144.9,70.3c-67.1,65.7-134.2,131.4-201.4,197.1
		c-8.7,8.7-74.1,72-170.5,61.8c-16-1.7-85.8-11-135.3-72.5c-40.4-50.2-58.2-123.9-32-191.8c28-72.4,103.4-130.7,187.5-122.5
		c76.2,7.4,145.6,68.1,153.4,134.2C436.8,496.3,390,553.7,387.5,552.7L387.5,552.7z"/>
	<g>
		<path class="st0" d="M420.1,405.1c-7.5-18.7-16.9-30.3-24.2-37.5c-6.9-6.9-11.8-12.9-25.5-23.6c-7.3-5.7-12.2-11.8-15.6-17.4
			c-14.3-23.6-13.6-86.2,20.6-118.6c37.6-35.6,113.6-33.8,169.7,18.8c19.4,16.6,62.8,49.2,127.7,61.8
			c73.8,14.4,132.8-5.2,156.4-14.6c-30.4,4.3-74.5,5.9-120.8-11.7c-78.9-30-95.8-90-161.3-127.6c-13.5-7.7-129.7-71.8-209.8-15.6
			C289.2,153,265.9,222.1,280.7,284c15.5,64.9,67,97.3,77.8,103.8C379,393.6,399.6,399.3,420.1,405.1L420.1,405.1z"/>
		<circle class="st0" cx="588.8" cy="114.7" r="61.4"/>
	</g>
</g>
<g>
	<path class="st0" d="M171.6,785.5c-2.6-6.8-6.7-12.7-12.2-17.5c-5.6-4.8-11.9-8.6-19-11.2c-7.1-2.7-14.7-4.3-22.6-5
		s-15.5-0.2-22.5,1.2c-7.6,1.7-14.4,4.5-20.4,8.5c-6,4-11.1,8.8-15.3,14.4c-4.2,5.7-7.4,11.9-9.6,18.7c-2.2,6.8-3.3,14-3.3,21.4
		c0,13.9,3,25.7,8.9,35.4c5.9,9.7,13.4,17.2,22.5,22.3s19,8,29.7,8.3c10.7,0.4,20.9-1.7,30.5-6.1c8.3-3.7,17.7-10.9,28-21.7
		l23.9,25.8c-6.3,6.5-12.4,12-18.3,16.7c-5.9,4.6-12.1,8.4-18.5,11.4c-6.4,3-13.1,5.2-20.3,6.7c-7.1,1.5-14.8,2.2-23.2,2.2
		c-15,0-28.2-2.4-39.7-7.2s-21.3-11.2-29.4-19.3c-8.2-8-14.6-17.3-19.3-27.8s-7.8-21.3-9.3-32.6c-1.5-11.3-1.2-22.5,0.8-33.7
		c2-11.2,5.7-21.6,11.1-31.2c5.2-9.1,11.1-16.7,17.6-22.9c6.6-6.2,13.7-11.2,21.4-15s15.8-6.5,24.4-8.2s17.5-2.6,26.8-2.8
		c6.5,0,13.3,0.6,20.4,1.8c7.1,1.2,13.9,3,20.3,5.5s12.1,5.7,17.1,9.6s8.5,8.4,10.6,13.6c2,5.2,2.3,11,0.8,17.3
		C182,770.6,178.1,777.7,171.6,785.5L171.6,785.5z"/>
	<path class="st0" d="M266.3,967.4c-9.1,0-17.4-1.2-25.1-3.6c-7.7-2.4-14-6-19-10.7c-5-4.7-8.4-10.7-10.1-17.9
		c-1.8-7.2-1.2-15.5,1.5-25c2.2,4.1,5.1,7.6,8.8,10.7s7.6,5.6,12.1,7.6c4.4,2,9.1,3.6,13.9,4.6s9.5,1.4,14.2,1.2
		c13.3-0.5,23.5-4,30.5-10.4c7-6.4,10.5-16.3,10.5-29.8c-1.3,3.5-3.5,6.6-6.7,9.2c-3.1,2.6-6.7,4.8-10.5,6.5
		c-3.9,1.8-7.9,3.1-11.9,4c-4.1,0.9-7.8,1.5-11.1,1.7c-7,0.4-14-0.5-20.8-2.8c-6.9-2.2-13.1-6.2-18.6-11.9
		c-8.3-8.5-12.5-20.9-12.5-37.2v-94.1h35.3c0,3.2-0.1,7.4-0.1,12.6c-0.1,5.3-0.1,11.1-0.1,17.5v19.7c0,6.8,0.1,13.2,0.3,19.3
		c0.2,6.1,0.5,11.5,0.8,16.2s0.8,8.2,1.4,10.4c1.5,5.9,4.3,10.4,8.3,13.3s8.5,4.4,13.3,4.4c3.1,0,6.1-0.5,8.9-1.5
		c2.8-1,5.2-2.5,7.4-4.3c2.1-1.8,3.8-3.9,5.1-6.2c1.3-2.3,1.9-4.9,1.9-7.6c4.6,1.3,7.9,4.5,9.7,9.7V769.4h35.8V896
		c0,21.8-6.2,39.2-18.5,52.1C308.5,960.9,290.4,967.4,266.3,967.4L266.3,967.4z"/>
	<path class="st0" d="M479,823c-1.5-5.2-4.3-9.5-8.5-13c-4.2-3.5-9-6.2-14.6-7.9c-5.5-1.8-11.5-2.6-17.8-2.5
		c-6.3,0.1-12.3,1.3-17.9,3.8c-5.6,2.4-10.6,6-14.9,10.7c-4.3,4.7-7.2,10.7-8.9,17.9c-1.3,5.9-1.5,11.9-0.6,18s3,11.6,6.4,16.5
		c3.3,4.9,7.8,8.9,13.5,12.1c5.6,3.2,12.5,4.7,20.4,4.7c15,0,26.7-5.5,35-16.4l26.4,19.2c-14.1,19.8-34.3,29.7-60.8,29.7
		c-13.9,0-25.9-2.6-36-7.9c-10.1-5.3-18.3-12.1-24.6-20.5c-6.3-8.4-10.5-17.9-12.8-28.3s-2.5-20.8-0.7-31.1
		c1.8-10.3,5.6-20,11.5-29.2c5.9-9.2,14-16.6,24.2-22.3c7.6-4.3,15.7-7.2,24.3-8.8c8.6-1.6,17.3-1.7,26-0.4
		c11.5,1.7,20.4,5.1,26.8,10.3c6.4,5.2,10.6,10.8,12.6,16.8c2,6,2.2,11.8,0.4,17.2C486.8,816.9,483.6,820.8,479,823L479,823z"/>
	<path class="st0" d="M559.2,878.2h66.6v35.3H522.3V748.3c0-9.2,3.3-16.5,10.1-21.7c6.7-5.2,15.7-7.7,26.9-7.5V878.2L559.2,878.2z"
		/>
	<path class="st0" d="M676.9,710.5c6.3,0,11.7,2.3,16.1,6.9c4.6,4.4,6.9,9.9,6.9,16.4s-2.2,12-6.7,16.7c-2.6,2.6-5.6,4.4-9,5.4
		c-3.4,1-6.8,2-10.3,3c-3.4,1-6.6,2.2-9.4,3.6s-4.9,3.7-6,6.8c-0.9-3-1.9-6.8-2.9-11.4c-1-4.6-1.7-9.4-1.9-14.4
		c-0.3-5,0-9.9,0.8-14.6c0.8-4.7,2.8-8.7,6-11.8C665,712.8,670.5,710.5,676.9,710.5L676.9,710.5z M658.9,798.8
		c0.4-5.5,1.5-10.2,3.5-13.9c1.9-3.7,4.5-6.7,7.6-8.9c3.2-2.2,6.8-3.8,11-4.9c4.2-1,8.8-1.5,13.7-1.5v143.8h-35.8L658.9,798.8
		L658.9,798.8z"/>
	<path class="st0" d="M763.6,786.3c1.5-3.3,3.8-6.2,6.8-8.6c3-2.4,6.4-4.4,10.1-6.1s7.5-3,11.4-3.9c3.9-0.9,7.5-1.5,10.8-1.7
		c7-0.4,14,0.6,20.8,2.9c6.8,2.3,13.1,6.3,18.9,12.1c8.3,8.7,12.5,21.2,12.5,37.5v95h-35.5c0-3.2,0-7.4,0.1-12.8
		c0.1-5.4,0.1-11.2,0.1-17.6v-19.8c0-6.8-0.1-13.3-0.3-19.4c-0.2-6.1-0.5-11.6-0.8-16.4s-0.8-8.3-1.4-10.5
		c-1.5-5.9-4.3-10.4-8.5-13.3s-8.7-4.4-13.5-4.4c-6.3,0-11.2,1.7-14.7,5.1c-3.5,3.4-5.3,7.9-5.3,13.5c-2.2-0.7-4.4-2.3-6.7-4.6
		c-2.2-2.3-3.9-4.8-5-7.4v107.7h-35.8V769.7h35.8L763.6,786.3L763.6,786.3z"/>
	<path class="st0" d="M917.9,831l30.3-33.6c6.1-6.8,12.1-12.4,18-16.7c5.9-4.3,13-6.7,21.4-7.2c4.1-0.2,8,0.1,11.7,1
		c3.7,0.8,6.8,2.3,9.2,4.4c2.4,2.1,4,4.8,4.7,8c0.7,3.2,0.3,7.2-1.4,11.8c-0.7-1.3-2.1-2.2-4-2.6c-1.9-0.5-4.3-0.4-6.9,0.1
		c-2.7,0.5-5.6,1.7-8.8,3.5c-3.2,1.8-6.2,4.4-9.2,7.9l-29.4,32.5l67.8,73.3h-43.9l-59.4-64.7v64.7h-35.3v-166c0-8.9,3.2-15.9,9.6-21
		s15-7.5,25.7-7.4L917.9,831L917.9,831z"/>
</g>
</svg>
